<?xml version="1.0" standalone="no"?><!DOCTYPE svg PUBLIC "-//W3C//DTD SVG 1.1//EN" "http://www.w3.org/Graphics/SVG/1.1/DTD/svg11.dtd">
<svg t="1716905628408" class="icon" viewBox="0 0 1024 1024" version="1.1" xmlns="http://www.w3.org/2000/svg" p-id="2753" width="32" height="32" style="fill:#808080"  xmlns:xlink="http://www.w3.org/1999/xlink">
<path  d="M900.522667 41.002667c-46.848-46.186667-122.858667-46.250667-169.792-0.170667l-0.170667 0.170667-50.624 49.813333-9.045333-8.896a60.757333 60.757333 0 0 0-84.906667-0.085333l-0.085333 0.085333a58.410667 58.410667 0 0 0-0.085334 83.541333l0.085334 0.085334 16.277333 16.021333-361.642667 359.36c-5.418667 5.333333-9.045333 10.666667-14.464 16.021333-10.858667 17.792-18.090667 37.354667-18.090666 58.709334 0 10.666667 1.813333 23.125333 5.418666 33.792L188.096 674.346667c-18.090667 17.792-18.090667 48.042667 0 67.605333s48.810667 17.792 68.714667 0l25.322666-24.917333c37.973333 14.229333 81.365333 3.562667 110.293334-24.917334l363.434666-357.589333 16.277334 16.021333c23.509333 23.125333 61.482667 24.917333 84.992 1.770667 23.509333-23.125333 25.322667-60.48 1.813333-83.626667l-1.813333-1.770666-9.045334-8.896 50.624-49.813334a118.357333 118.357333 0 0 0 1.813334-167.210666zM602.176 418.154667l-168.170667-1.770667 204.330667-199.253333 84.992 83.626666-121.152 117.397334zM232.064 955.776a58.496 58.496 0 0 1-57.941333 57.109333 58.517333 58.517333 0 0 1-57.109334-58.752c0-48.021333 33.92-116.992 61.248-165.546666 27.584 54.634667 54.634667 121.962667 53.802667 167.189333z" p-id="2754"></path>
</svg>